<svg xmlns="http://www.w3.org/2000/svg" xmlns:xlink="http://www.w3.org/1999/xlink" width="65" height="64" viewBox="0 0 32 32" preserveAspectRatio="xMidYMid">
  <defs>
    <linearGradient id="grad1" x1="0%" y1="0%" x2="100%" y2="100%">
      <stop offset="0%" style="stop-color:#f9a03c;stop-opacity:1" />
      <stop offset="100%" style="stop-color:#f7974e;stop-opacity:1" />
    </linearGradient>
    <linearGradient id="grad2" x1="0%" y1="0%" x2="100%" y2="100%">
      <stop offset="0%" style="stop-color:#f26d58;stop-opacity:1" />
      <stop offset="100%" style="stop-color:#f9a03c;stop-opacity:1" />
    </linearGradient>
    <linearGradient id="grad3" x1="0%" y1="0%" x2="100%" y2="100%">
      <stop offset="0%" style="stop-color:#b84e51;stop-opacity:1" />
      <stop offset="100%" style="stop-color:#f68e48;stop-opacity:1" />
    </linearGradient>
  </defs>
  <g transform="matrix(.125041 0 0 .125041 0 .844399)">
    <path d="M16 3c0 1-1.5 3.5-3 6-1.6 2.6-4 5-6 7s-4 4.4-6 6c-1 1-2 2-3 3-1.2 1.2 0 2 1 1 1.2-1.2 2-2 3-3 2-1.6 4-3.4 6-5s4.4-3.4 6-5 5-4.4 7-6c1-1 2-2 3-3 1.2-1.2 0-2-1-1-1.2 1.2-2 2-3 3-2 1.6-4 3.4-6 5s-4.4 3.4-6 5-4.4 3.4-6 5-5 4.4-7 6c-1 1-2 2-3 3-1.2 1.2 0 2 1 1 1.2-1.2 2-2 3-3 2-1.6 4-3.4 6-5s4.4-3.4 6-5 5-4.4 7-6c1-1 2-2 3-3 1.2-1.2 0-2-1-1-1.2 1.2-2 2-3 3-2 1.6-4 3.4-6 5s-4.4 3.4-6 5-5 4.4-7 6c-1 1-2 2-3 3-1.2 1.2 0 2 1 1 1.2-1.2 2-2 3-3 2-1.6 4-3.4 6-5s4.4-3.4 6-5 5-4.4 7-6c1-1 2-2 3-3 1.2-1.2 0-2-1-1z" fill="url(#grad1)"/>
    <path d="M21 9c0 1-2 3.5-4 6-2 2.6-4 5-6 7s-4 4.4-6 6c-1 1-2 2-3 3-1.2 1.2 0 2 1 1 1.2-1.2 2-2 3-3 2-1.6 4-3.4 6-5s4.4-3.4 6-5 5-4.4 7-6c1-1 2-2 3-3 1.2-1.2 0-2-1-1-1.2 1.2-2 2-3 3-2 1.6-4 3.4-6 5s-4.4 3.4-6 5-5 4.4-7 6c-1 1-2 2-3 3-1.2 1.2 0 2 1 1 1.2-1.2 2-2 3-3 2-1.6 4-3.4 6-5s4.4-3.4 6-5 5-4.4 7-6c1-1 2-2 3-3 1.2-1.2 0-2-1-1-1.2 1.2-2 2-3 3-2 1.6-4 3.4-6 5s-4.4 3.4-6 5-5 4.4-7 6c-1 1-2 2-3 3-1.2 1.2 0 2 1 1 1.2-1.2 2-2 3-3 2-1.6 4-3.4 6-5s4.4-3.4 6-5 5-4.4 7-6c1-1 2-2 3-3 1.2-1.2 0-2-1-1z" fill="url(#grad2)"/>
    <path d="M26 15c0 1-2 3.5-4 6-2 2.6-4 5-6 7s-4 4.4-6 6c-1 1-2 2-3 3-1.2 1.2 0 2 1 1 1.2-1.2 2-2 3-3 2-1.6 4-3.4 6-5s4.4-3.4 6-5 5-4.4 7-6c1-1 2-2 3-3 1.2-1.2 0-2-1-1-1.2 1.2-2 2-3 3-2 1.6-4 3.4-6 5s-4.4 3.4-6 5-5 4.4-7 6c-1 1-2 2-3 3-1.2 1.2 0 2 1 1 1.2-1.2 2-2 3-3 2-1.6 4-3.4 6-5s4.4-3.4 6-5 5-4.4 7-6c1-1 2-2 3-3 1.2-1.2 0-2-1-1-1.2 1.2-2 2-3 3-2 1.6-4 3.4-6 5s-4.4 3.4-6 5-5 4.4-7 6c-1 1-2 2-3 3-1.2 1.2 0 2 1 1 1.2-1.2 2-2 3-3 2-1.6 4-3.4 6-5s4.4-3.4 6-5 5-4.4 7-6c1-1 2-2 3-3 1.2-1.2 0-2-1-1z" fill="url(#grad3)"/>
  </g>
</svg>
